<svg version="1.1" id="Layer_1" xmlns="http://www.w3.org/2000/svg" xmlns:xlink="http://www.w3.org/1999/xlink" x="0px" y="0px"
	 width="177.648px" height="180.484px" viewBox="0 0 88.824 90.242" style="enable-background:new 0 0 88.824 90.242;"
	 xml:space="preserve">


<style type="text/css">
  <![CDATA[
    .st0{fill:none;stroke:#334BA5;stroke-width:3;stroke-linecap:round;stroke-linejoin:round;stroke-miterlimit:10;}
  ]]>

  <!-- <defs>
    <style> -->

      .st0 {
        stroke-dasharray: 320;
        stroke-dashoffset:0;
        -webkit-animation: dash 4s ease-in-out;
        -o-animation: dash 4s linear ease-in-out;
        -moz-animation: dash 4s linear ease-in-out;
        animation: dash 4s linear ease-in-out;
      }
      @-webkit-keyframes dash {
        from {
          stroke-dashoffset: 320;
        }
        to {
          stroke-dashoffset: 640;
        }
      }
    <!-- </style>
  </defs> -->
</style>



<path class="st0" d="M53.745,27.096V12.251l0,0v-1.418c0-5.154-4.179-9.333-9.332-9.333c-5.154,0-9.333,4.179-9.333,9.333v1.418l0,0
	v19.09c0,2.848-2.309,5.156-5.157,5.156H10.833c-5.154,0-9.333,4.179-9.333,9.333s4.179,9.333,9.333,9.333h13.548
	c7.583,0,10.812-0.114,20.032-9.333c9.218-9.219,11.384-9.333,20.03-9.333h13.549c5.154,0,9.332,4.179,9.332,9.333
	s-4.178,9.333-9.332,9.333H58.901c-2.848,0-5.156,2.309-5.156,5.156c0,0.001,0,19.09,0,19.09c0,5.154-4.179,9.333-9.332,9.333
	c-5.154,0-9.333-4.179-9.333-9.333V64.572"/>
</svg>
